PathFileType	4	(X/Y/Z)	Walk2.trc
DataRate	CameraRate	NumFrames	NumMarkers	Units	OrigDataRate	OrigDataStartFrame	OrigNumFrames
200.000000	200.000000	4	61	mm	200.000000	242	591
Frame#	Times		LFHD		RFHD		CLAV		STRN		LASI		RASI		RACR1		RUA1		RElbow		RFA1		RWRR		RWRU		RCAR		LACR1		LUA1		LElbow		LFA1		LWRR		RTH3		RTH2		RTB1		RTB3		RTB2		RTB4		LTH1		LTH3		LLFC		LMFC		LTB1		LTB2		LMT1		LWRU		LCAR		LTB3		RMFC		LTB4		RMMAL		LTH4		LTH2		RToe		RElbowM		RMT1		RLFC		RTH4		RTH1		LBHD		RCAL		RLMAL		LToe		RBack		RMT5		LMT5		RPSI		LLMAL		C7		LPSI		LMMAL		T10		LCAL		RBHD		LElbowM
			X1	Y1	Z1	X2	Y2	Z2	X3	Y3	Z3	X4	Y4	Z4	X5	Y5	Z5	X6	Y6	Z6	X7	Y7	Z7	X8	Y8	Z8	X9	Y9	Z9	X10	Y10	Z10	X11	Y11	Z11	X12	Y12	Z12	X13	Y13	Z13	X14	Y14	Z14	X15	Y15	Z15	X16	Y16	Z16	X17	Y17	Z17	X18	Y18	Z18	X19	Y19	Z19	X20	Y20	Z20	X21	Y21	Z21	X22	Y22	Z22	X23	Y23	Z23	X24	Y24	Z24	X25	Y25	Z25	X26	Y26	Z26	X27	Y27	Z27	X28	Y28	Z28	X29	Y29	Z29	X30	Y30	Z30	X31	Y31	Z31	X32	Y32	Z32	X33	Y33	Z33	X34	Y34	Z34	X35	Y35	Z35	X36	Y36	Z36	X37	Y37	Z37	X38	Y38	Z38	X39	Y39	Z39	X40	Y40	Z40	X41	Y41	Z41	X42	Y42	Z42	X43	Y43	Z43	X44	Y44	Z44	X45	Y45	Z45	X46	Y46	Z46	X47	Y47	Z47	X48	Y48	Z48	X49	Y49	Z49	X50	Y50	Z50	X51	Y51	Z51	X52	Y52	Z52	X53	Y53	Z53	X54	Y54	Z54	X55	Y55	Z55	X56	Y56	Z56	X57	Y57	Z57	X58	Y58	Z58	X59	Y59	Z59	X60	Y60	Z60	X61	Y61	Z61

242	1.21	-658.63	1628.8	-104.55	-661.21	1638.6	-5.0325	-658.28	1378.9	-27.117	-589.6	1222.1	-18.551	-684	952.84	-197.55	-724.92	967.87	169.57	-789.43	1462.4	133.15	-798.54	1298.8	258.5	-761.1	1162.7	325.04	-681.71	1034.1	345.81	-613	932.78	281.85	-629.38	933.62	362.34	-563.2	871.04	337.04	-759.92	1443	-217.22	-826.86	1282.5	-304.42	-878.9	1125.8	-350.83	-889.4	985.1	-360.24	-867.97	854.45	-297.86	-904.62	594.16	153.49	-831.52	669.35	161.75	-931.89	348	66.084	-1016.3	198.85	39.523	-999.81	278.67	108.34	-974.49	273.02	53.06	-674.56	749.42	-226.13	-602.21	595.92	-198.38	-589.38	514.15	-198.13	-573.16	509.83	-41.158	-483.27	427.83	-141.12	-484.98	330.74	-180.06	-296.57	112.22	-110.1	-917.64	846.24	-353.26	-884.45	764.02	-323.75	-436.61	264.51	-115.48	-933.83	488.46	-16.956	-456.69	348.89	-127.74	-1103.4	93.878	-31.482	-639.59	673.22	-212.95	-591.21	700.14	-187.93	-954.03	27.397	65.05	-788.06	1074	230.64	-998.1	26.19	22.265	-952.57	484.28	137.76	-889.4	677.54	167.61	-875.66	762.33	182.69	-808.47	1549.8	-112.6	-1209.4	82.766	-5.0342	-1148.4	97.346	50.503	-258.15	135.52	-149.31	-924.23	1336.2	70.295	-1061.9	31.086	104.83	-342.86	68.833	-179.08	-962.89	1013.8	-17.87	-460.52	82.543	-120.79	-851.96	1456.4	-42.608	-939.62	1004.7	-95.919	-436.25	101.26	-37.645	-913.62	1139.6	-45.943	-490.25	34.688	-62.681	-799.05	1568	34.195	-954.04	1089.3	-256.69
243	1.215	-651.86	1627.7	-105.95	-654.56	1637.6	-6.4352	-651.34	1377.7	-28.203	-582.67	1221	-19.183	-676.56	951.63	-197.6	-718.18	966.92	169.32	-782.74	1461.6	131.82	-791.76	1298.3	257.48	-754.35	1162.2	324.17	-674.91	1033.8	345.01	-606.26	932.4	281.06	-622.48	933.31	361.57	-556.26	870.81	336.22	-752.9	1441.3	-218.51	-819.92	1280.8	-305.32	-872.13	1124	-351.48	-882.78	983.31	-360.68	-861.44	852.74	-298.14	-899.44	593.54	153.41	-826.05	668.44	161.76	-928.34	347.28	66.102	-1014.3	199.05	39.516	-997.02	278.7	108.34	-971.74	272.76	53.064	-666.68	748.74	-226.06	-594.45	595.23	-198.26	-581.63	513.58	-198.16	-565.94	509	-41.255	-476.19	426.36	-140.52	-478.62	329.35	-179.59	-293.14	107.71	-108.62	-911.16	844.51	-353.49	-878.01	762.31	-323.9	-431.39	262.53	-114.8	-928.63	487.81	-16.975	-450.5	347.13	-127.03	-1102.5	95.027	-31.457	-631.8	672.52	-212.73	-583.28	699.44	-188.03	-953.95	27.331	65.106	-781.36	1073.4	229.95	-998.04	26.172	22.294	-947.93	483.89	137.68	-883.91	676.88	167.46	-869.89	761.62	182.58	-801.6	1548.5	-114.07	-1208.6	85.083	-5.012	-1147.5	98.894	50.529	-254.27	130.63	-147.27	-917.47	1335.2	69.139	-1061.7	31.243	104.63	-339.83	65.384	-177.91	-955.8	1012.5	-18.555	-457.48	81.017	-120.58	-845.17	1455.1	-44.042	-932.42	1003.4	-96.382	-433.42	99.15	-37.146	-906.52	1138.4	-46.314	-488.42	33.946	-62.695	-792.3	1566.9	32.619	-947.3	1087.7	-257.28
244	1.22	-645.04	1626.6	-107.38	-647.87	1636.6	-7.8613	-644.37	1376.6	-29.313	-575.7	1220	-19.847	-669.11	950.52	-197.65	-711.37	966.02	169.02	-776	1460.9	130.47	-784.97	1297.8	256.45	-747.61	1161.7	323.27	-668.16	1033.4	344.19	-599.61	932.02	280.26	-615.66	933	360.77	-549.42	870.56	335.39	-745.86	1439.7	-219.82	-812.93	1279	-306.24	-865.28	1122.2	-352.15	-876.08	981.51	-361.14	-854.8	851.02	-298.46	-894.11	592.94	153.33	-820.44	667.55	161.76	-924.66	346.58	66.126	-1012.3	199.31	39.522	-994.1	278.78	108.35	-968.87	272.54	53.08	-658.86	748.15	-226.01	-586.75	594.64	-198.19	-573.96	513.1	-198.24	-558.87	508.24	-41.428	-469.17	424.98	-140.01	-472.35	328.05	-179.19	-289.85	103.08	-107.27	-904.58	842.76	-353.76	-871.44	760.6	-324.1	-426.26	260.65	-114.2	-923.27	487.16	-16.983	-444.38	345.47	-126.41	-1101.5	96.285	-31.402	-624.09	671.92	-212.55	-575.41	698.83	-188.21	-953.88	27.267	65.148	-774.69	1072.8	229.22	-997.97	26.144	22.316	-943.11	483.52	137.62	-878.28	676.23	167.3	-863.98	760.94	182.44	-794.7	1547.2	-115.56	-1207.8	87.576	-4.9467	-1146.6	100.57	50.589	-250.54	125.54	-145.35	-910.68	1334.3	67.97	-1061.4	31.433	104.44	-337.04	61.874	-176.84	-948.65	1011.3	-19.246	-454.61	79.636	-120.4	-838.34	1454	-45.5	-925.18	1002.2	-96.852	-430.68	97.19	-36.698	-899.42	1137.2	-46.67	-486.77	33.451	-62.707	-785.51	1565.8	31.034	-940.48	1086.1	-257.88
245	1.225	-638.19	1625.6	-108.83	-641.15	1635.8	-9.3097	-637.35	1375.6	-30.443	-568.67	1219.1	-20.544	-661.65	949.51	-197.71	-704.47	965.16	168.69	-769.2	1460.2	129.12	-778.17	1297.4	255.39	-740.89	1161.3	322.33	-661.47	1033.1	343.34	-593.04	931.63	279.44	-608.93	932.69	359.95	-542.69	870.31	334.55	-738.81	1438.1	-221.15	-805.89	1277.3	-307.17	-858.34	1120.5	-352.83	-869.28	979.71	-361.63	-848.06	849.3	-298.8	-888.6	592.35	153.27	-814.67	666.71	161.74	-920.82	345.9	66.16	-1010.2	199.64	39.547	-991.03	278.91	108.38	-965.86	272.36	53.11	-651.12	747.68	-226	-579.11	594.17	-198.2	-566.35	512.75	-198.4	-551.91	507.57	-41.688	-462.2	423.7	-139.62	-466.17	326.85	-178.88	-286.7	98.374	-106.06	-897.88	841.02	-354.05	-864.73	758.9	-324.35	-421.2	258.89	-113.71	-917.74	486.53	-16.974	-438.33	343.91	-125.89	-1100.5	97.657	-31.31	-616.44	671.44	-212.42	-567.59	698.34	-188.45	-953.82	27.204	65.173	-768.04	1072.2	228.46	-997.92	26.106	22.332	-938.09	483.17	137.58	-872.49	675.59	167.14	-857.95	760.28	182.29	-787.75	1546.1	-117.07	-1206.9	90.257	-4.8318	-1145.5	102.37	50.689	-246.96	120.3	-143.59	-903.85	1333.5	66.79	-1061.2	31.659	104.26	-334.48	58.352	-175.88	-941.46	1010.1	-19.932	-451.88	78.418	-120.26	-831.48	1452.9	-46.978	-917.93	1001.2	-97.325	-428.02	95.408	-36.308	-892.32	1136.1	-47.011	-485.26	33.208	-62.723	-778.7	1564.9	29.44	-933.58	1084.5	-258.5
